<svg xmlns="http://www.w3.org/2000/svg" viewBox="0 0 699.31 112.92"><defs><style>.cls-1{fill:#000333;}.cls-2{fill:#8cc63f;}.cls-3{fill:#009245;}</style></defs><g id="Capa_2" data-name="Capa 2"><g id="Capa_1-2" data-name="Capa 1"><path class="cls-1" d="M426.59,17.38Q427.19-.52,445.1.08,444.49,18,426.59,17.38Z"/><path class="cls-1" d="M122.87,39.48H112.25v-15h10.62v-.93q0-11.19,6.53-17.32T147.7.08a29.31,29.31,0,0,1,6.12.58V15.44a24.43,24.43,0,0,0-3.81-.35q-9.82,0-9.82,8.43v.92H153.7v15H140.19v48H122.87Z"/><path class="cls-1" d="M159.13,24.47H175.3v9.47q2.41-5.89,6.87-8a23.51,23.51,0,0,1,10.22-2.14h3.69v15h-5.43a14,14,0,0,0-10.27,3.87q-3.93,3.87-3.93,10.91V87.49H159.13Z"/><path class="cls-1" d="M213.17,84.46a30.77,30.77,0,0,1-11.43-12,34.5,34.5,0,0,1-4-16.62A33.38,33.38,0,0,1,201.91,39a31.61,31.61,0,0,1,11.38-11.67,31,31,0,0,1,16.16-4.27q10.05,0,17,4.16A27.75,27.75,0,0,1,257,38.38a33.57,33.57,0,0,1,3.64,15.76c0,1.24-.06,2.45-.17,3.64a12.83,12.83,0,0,1-.64,3.06H215.71a14.39,14.39,0,0,0,4.74,9.47,15.05,15.05,0,0,0,10.39,3.58A15.9,15.9,0,0,0,238.75,72,13.21,13.21,0,0,0,243.89,67l13.85,6.58a23,23,0,0,1-10.16,11.15,36.39,36.39,0,0,1-34.41-.23Zm7.71-44.64a14.64,14.64,0,0,0-4.79,8.32H242.3a12.4,12.4,0,0,0-4-8.08,12.63,12.63,0,0,0-8.78-3.12A13.14,13.14,0,0,0,220.88,39.82Z"/><path class="cls-1" d="M274,84a24.49,24.49,0,0,1-10.45-13.22l12.7-6a19.75,19.75,0,0,0,6.58,8,15.74,15.74,0,0,0,9.24,2.89q7.62,0,7.62-5.66c0-2.54-2.08-4.38-6.24-5.54l-10.73-3q-7.75-2.19-11.9-7.1a17.37,17.37,0,0,1-4.16-11.61,17.75,17.75,0,0,1,3-10.28,20,20,0,0,1,8.43-6.87,32.56,32.56,0,0,1,28.69,1.85,23.44,23.44,0,0,1,9.87,12.18l-12.81,6a12.22,12.22,0,0,0-5-6.29,14.8,14.8,0,0,0-8.25-2.37,8.81,8.81,0,0,0-5.26,1.38,4.47,4.47,0,0,0-1.9,3.81q0,3.7,6.81,5.66l10,3q7.85,2.31,12,7a16.63,16.63,0,0,1,4.15,11.49,17.38,17.38,0,0,1-6.69,14.2Q303,88.9,292.07,88.9A32.66,32.66,0,0,1,274,84Z"/><path class="cls-1" d="M337.25,84.57a32.43,32.43,0,0,1-16.46-28.69,32.5,32.5,0,0,1,4.39-16.81,31.72,31.72,0,0,1,12-11.72,36.31,36.31,0,0,1,30.14-1.84,30.26,30.26,0,0,1,10.28,6.75,25.12,25.12,0,0,1,6.12,10.22l-15,6.47a14.84,14.84,0,0,0-14.43-10.28,14.43,14.43,0,0,0-11.2,4.85q-4.4,4.84-4.39,12.47t4.39,12.47a14.4,14.4,0,0,0,11.2,4.85A14.7,14.7,0,0,0,368.71,63l15,6.58a24.82,24.82,0,0,1-6,9.93,30.29,30.29,0,0,1-10.28,6.87,34.09,34.09,0,0,1-13.16,2.48A33.61,33.61,0,0,1,337.25,84.57Z"/><path class="cls-1" d="M404.68,84.63a32.93,32.93,0,0,1-12.24-11.72A31.69,31.69,0,0,1,387.88,56a31.68,31.68,0,0,1,4.56-17,33,33,0,0,1,12.24-11.67,36,36,0,0,1,34,0A33.1,33.1,0,0,1,450.87,39a31.68,31.68,0,0,1,4.56,17,31.69,31.69,0,0,1-4.56,16.92,32.92,32.92,0,0,1-12.18,11.72A36,36,0,0,1,404.68,84.63Zm28.47-16.17q4.38-4.84,4.39-12.47a18,18,0,0,0-4.39-12.41,14.63,14.63,0,0,0-11.43-4.91,14.79,14.79,0,0,0-11.49,4.91A17.8,17.8,0,0,0,405.78,56q0,7.62,4.45,12.47a16,16,0,0,0,22.92,0Z"/><path class="cls-1" d="M475.29,84.51A31.82,31.82,0,0,1,463.8,72.62,33.34,33.34,0,0,1,459.59,56a32.91,32.91,0,0,1,4.27-16.68,32.38,32.38,0,0,1,11.55-11.84,31,31,0,0,1,16.28-4.39q11.43,0,18.13,6.7V.08h17.32V87.49H511v-6A21.77,21.77,0,0,1,502.6,87a30.14,30.14,0,0,1-10.8,1.91A31.31,31.31,0,0,1,475.29,84.51Zm30.08-16q4.44-4.78,4.45-12.53t-4.45-12.47a14.87,14.87,0,0,0-11.49-4.85,15.48,15.48,0,0,0-11.78,4.91A17.39,17.39,0,0,0,477.48,56a17.34,17.34,0,0,0,4.62,12.47,15.54,15.54,0,0,0,11.78,4.85A15,15,0,0,0,505.37,68.52Z"/><path class="cls-1" d="M536.38.33H553.7V17.65H536.38Zm0,24.14H553.7V87.52H536.38Z"/><path class="cls-1" d="M580.37,110.49a31.4,31.4,0,0,1-10.68-6.75,25.31,25.31,0,0,1-6.41-10.22l16.05-5.66a12,12,0,0,0,5.2,6.93,16.85,16.85,0,0,0,9.35,2.54q6.48,0,10.16-3.52t3.7-9.64v-6q-6.24,6.24-16.86,6.24a31,31,0,0,1-15.71-4,28.52,28.52,0,0,1-10.85-11,31.88,31.88,0,0,1-3.93-15.87,31.23,31.23,0,0,1,3.93-15.77A28.6,28.6,0,0,1,575.06,27a30.48,30.48,0,0,1,15.47-3.93q11.67,0,18.36,8V24.47h16.17v59.7A27.63,27.63,0,0,1,621,99a28.37,28.37,0,0,1-11,10.21,33.88,33.88,0,0,1-16.11,3.7A36.91,36.91,0,0,1,580.37,110.49Zm23.38-45.9q4-4.1,4-10.82t-4-11a13.73,13.73,0,0,0-10.45-4.13,14.44,14.44,0,0,0-15,15.1,14.42,14.42,0,0,0,4.21,10.74,14.74,14.74,0,0,0,10.8,4.16A13.81,13.81,0,0,0,603.75,64.59Z"/><path class="cls-1" d="M648.56,84.63a32.78,32.78,0,0,1-12.24-11.72A31.69,31.69,0,0,1,631.76,56a31.68,31.68,0,0,1,4.56-17,32.88,32.88,0,0,1,12.24-11.67,36,36,0,0,1,34,0A33.2,33.2,0,0,1,694.75,39a31.85,31.85,0,0,1,4.56,17,31.87,31.87,0,0,1-4.56,16.92,33,33,0,0,1-12.19,11.72A35.94,35.94,0,0,1,648.56,84.63ZM677,68.46q4.38-4.84,4.39-12.47A17.9,17.9,0,0,0,677,43.58a14.6,14.6,0,0,0-11.43-4.91,14.79,14.79,0,0,0-11.49,4.91A17.85,17.85,0,0,0,649.65,56q0,7.62,4.45,12.47a14.84,14.84,0,0,0,11.49,4.85A14.6,14.6,0,0,0,677,68.46Z"/><path class="cls-2" d="M12.85,12.85a43.88,43.88,0,0,0,0,62.05l62.05-62A43.88,43.88,0,0,0,12.85,12.85Z"/><path class="cls-3" d="M74.9,74.9a43.88,43.88,0,0,0,0-62l-62,62.05A43.88,43.88,0,0,0,74.9,74.9Z"/></g></g></svg>