<svg xmlns="http://www.w3.org/2000/svg" viewBox="0 0 1120.64 195.44"><title>fres-logo-3</title><g id="Capa_2" data-name="Capa 2"><g id="Capa_1-2" data-name="Capa 1"><path d="M649.58,34.38Q650.79-1.17,686.35,0,685.14,35.59,649.58,34.38Z" style="fill:#000333"/><path d="M122.25,68.24h-18.4v-26h18.4v-1.6q0-19.39,11.3-30T165.25,0a50.64,50.64,0,0,1,10.6,1v25.6a43,43,0,0,0-6.6-.6q-17,0-17,14.6v1.6h23.4v26h-23.4v83.2h-30Z" style="fill:#000333"/><path d="M185.05,42.24h28v16.4q4.2-10.2,11.9-13.9a40.47,40.47,0,0,1,17.7-3.7h6.4V67h-9.4q-11,0-17.8,6.7t-6.8,18.9v58.8h-30Z" style="fill:#000333"/><path d="M278.65,146.14a53.21,53.21,0,0,1-19.8-20.7,59.69,59.69,0,0,1-7-28.8q0-16.4,7.3-29.2a54.64,54.64,0,0,1,19.7-20.2,53.62,53.62,0,0,1,28-7.4q17.4,0,29.4,7.2a48.09,48.09,0,0,1,18.3,19.3,58.25,58.25,0,0,1,6.3,27.3q0,3.21-.3,6.3a21.81,21.81,0,0,1-1.1,5.3h-76.4a24.93,24.93,0,0,0,8.2,16.4q7,6.21,18,6.2a27.51,27.51,0,0,0,13.7-3.2,23,23,0,0,0,8.9-8.8l24,11.4q-5,12-17.6,19.3t-29.4,7.3Q291.45,153.84,278.65,146.14ZM292,68.84q-6.1,5-8.3,14.4h45.4a21.5,21.5,0,0,0-7-14q-6-5.4-15.2-5.4A22.76,22.76,0,0,0,292,68.84Z" style="fill:#000333"/><path d="M384,145.34a42.5,42.5,0,0,1-18.1-22.9l22-10.4a34.37,34.37,0,0,0,11.4,13.8,27.37,27.37,0,0,0,16,5q13.2,0,13.2-9.8,0-6.6-10.8-9.6l-18.6-5.2q-13.41-3.8-20.6-12.3a30.08,30.08,0,0,1-7.2-20.1,30.73,30.73,0,0,1,5.2-17.8,34.67,34.67,0,0,1,14.6-11.9,51.47,51.47,0,0,1,21.6-4.3q16,0,28.1,7.5a40.67,40.67,0,0,1,17.1,21.1l-22.2,10.4a21.18,21.18,0,0,0-8.7-10.9,25.67,25.67,0,0,0-14.3-4.1q-5.81,0-9.1,2.4a7.72,7.72,0,0,0-3.3,6.6q0,6.41,11.8,9.8l17.4,5.2q13.59,4,20.8,12.1t7.2,19.9q0,15.21-11.6,24.6t-30.6,9.4Q397.25,153.84,384,145.34Z" style="fill:#000333"/><path d="M493.55,146.34a56.2,56.2,0,0,1-28.5-49.7,56.21,56.21,0,0,1,7.6-29.1,54.8,54.8,0,0,1,20.8-20.3,62.9,62.9,0,0,1,52.2-3.2,52.13,52.13,0,0,1,17.8,11.7,43.38,43.38,0,0,1,10.6,17.7l-26,11.2a25.72,25.72,0,0,0-25-17.8,25,25,0,0,0-19.4,8.4q-7.61,8.4-7.6,21.6t7.6,21.6a25,25,0,0,0,19.4,8.4,25.48,25.48,0,0,0,25-17.8l26,11.4a42.67,42.67,0,0,1-10.4,17.2,52.46,52.46,0,0,1-17.8,11.9,59.09,59.09,0,0,1-22.8,4.3A58.28,58.28,0,0,1,493.55,146.34Z" style="fill:#000333"/><path d="M610.35,146.44a56.76,56.76,0,0,1-21.2-20.3,54.92,54.92,0,0,1-7.9-29.3q0-16.59,7.9-29.4a57.12,57.12,0,0,1,21.2-20.2,62.3,62.3,0,0,1,58.9,0,57.44,57.44,0,0,1,21.1,20.2q7.89,12.81,7.9,29.4a55,55,0,0,1-7.9,29.3,57.07,57.07,0,0,1-21.1,20.3,62.3,62.3,0,0,1-58.9,0Zm49.3-28q7.59-8.4,7.6-21.6,0-13-7.6-21.5t-19.8-8.5q-12.21,0-19.9,8.5t-7.7,21.5q0,13.2,7.7,21.6t19.9,8.4Q652,126.84,659.65,118.44Z" style="fill:#000333"/><path d="M732.64,146.24a55.13,55.13,0,0,1-19.9-20.6,57.73,57.73,0,0,1-7.3-28.8,57.08,57.08,0,0,1,7.4-28.9,56.18,56.18,0,0,1,20-20.5,53.6,53.6,0,0,1,28.2-7.6q19.8,0,31.4,11.6V0h30v151.4h-28V141a37.85,37.85,0,0,1-14.5,9.5,52.28,52.28,0,0,1-18.7,3.3A54.24,54.24,0,0,1,732.64,146.24Zm52.1-27.7q7.69-8.3,7.7-21.7,0-13.2-7.7-21.6t-19.9-8.4q-12.4,0-20.4,8.5t-8,21.5q0,13.2,8,21.6t20.4,8.4Q777,126.84,784.74,118.54Z" style="fill:#000333"/><path d="M838.44.44h30v30h-30Zm0,41.8h30v109.2h-30Z" style="fill:#000333"/><path d="M914.64,191.24a54.39,54.39,0,0,1-18.5-11.7,43.69,43.69,0,0,1-11.1-17.7l27.8-9.8a20.8,20.8,0,0,0,9,12,29.18,29.18,0,0,0,16.2,4.4q11.21,0,17.6-6.1t6.4-16.7v-10.4q-10.8,10.8-29.2,10.8a53.58,53.58,0,0,1-27.2-6.9,49.45,49.45,0,0,1-18.8-19,55.16,55.16,0,0,1-6.8-27.5q0-15.39,6.8-27.3a49.62,49.62,0,0,1,18.6-18.7,52.74,52.74,0,0,1,26.8-6.8q20.21,0,31.8,13.8V42.24h28v103.4a47.76,47.76,0,0,1-7,25.7,49,49,0,0,1-19.1,17.7q-12.11,6.41-27.9,6.4A64,64,0,0,1,914.64,191.24Zm40.5-79.5Q962,104.65,962,93q0-11.79-6.9-19T937,66.84q-11.4,0-18.7,7.3T911,93q0,11.4,7.3,18.6t18.7,7.2Q948.25,118.84,955.14,111.74Z" style="fill:#000333"/><path d="M1032.74,146.44a56.76,56.76,0,0,1-21.2-20.3,54.92,54.92,0,0,1-7.9-29.3q0-16.59,7.9-29.4a57.12,57.12,0,0,1,21.2-20.2,62.3,62.3,0,0,1,58.9,0,57.44,57.44,0,0,1,21.1,20.2q7.89,12.81,7.9,29.4a55,55,0,0,1-7.9,29.3,57.07,57.07,0,0,1-21.1,20.3,62.3,62.3,0,0,1-58.9,0Zm49.3-28q7.59-8.4,7.6-21.6,0-13-7.6-21.5t-19.8-8.5q-12.21,0-19.9,8.5t-7.7,21.5q0,13.2,7.7,21.6t19.9,8.4Q1074.44,126.84,1082,118.44Z" style="fill:#000333"/><path d="M37.69.66V151.44Q113.08,76.05,37.69.66Z" style="fill:#009245"/><path d="M37.69,151.44V.66Q-37.68,76.05,37.69,151.44Z" style="fill:#8cc63f"/></g></g></svg>